<svg width="23" height="24" viewBox="0 0 23 24" fill="none" xmlns="http://www.w3.org/2000/svg">
<path d="M22.555 13.6619L20.655 6.82593C20.0981 4.82327 18.8878 3.06422 17.2164 1.8284C15.545 0.592587 13.5084 -0.049079 11.4305 0.00540109C9.35253 0.0598812 7.35242 0.807381 5.74808 2.12908C4.14373 3.45078 3.02722 5.27084 2.57601 7.29993L1.10501 13.9149C0.942528 14.6459 0.946284 15.404 1.11601 16.1333C1.28573 16.8625 1.61708 17.5444 2.08559 18.1285C2.55411 18.7126 3.14783 19.184 3.82292 19.5079C4.49801 19.8318 5.23724 20 5.98601 19.9999H7.10001C7.32953 21.1302 7.94274 22.1464 8.83576 22.8763C9.72877 23.6062 10.8467 24.0049 12 24.0049C13.1534 24.0049 14.2713 23.6062 15.1643 22.8763C16.0573 22.1464 16.6705 21.1302 16.9 19.9999H17.738C18.5088 20 19.2692 19.8218 19.9598 19.4794C20.6503 19.1369 21.2524 18.6394 21.7188 18.0258C22.1853 17.4122 22.5036 16.699 22.6488 15.942C22.794 15.185 22.7623 14.4046 22.556 13.6619H22.555ZM12 21.9999C11.3818 21.9974 10.7794 21.8038 10.2753 21.4458C9.77125 21.0878 9.3901 20.5828 9.18401 19.9999H14.816C14.6099 20.5828 14.2288 21.0878 13.7247 21.4458C13.2206 21.8038 12.6183 21.9974 12 21.9999ZM20.126 16.8149C19.8474 17.1846 19.4863 17.4842 19.0716 17.6899C18.6569 17.8956 18.1999 18.0018 17.737 17.9999H5.98601C5.5368 17.9999 5.09333 17.8989 4.68835 17.7045C4.28337 17.5101 3.92722 17.2273 3.64617 16.8768C3.36513 16.5264 3.16637 16.1173 3.06457 15.6798C2.96278 15.2423 2.96053 14.7874 3.05801 14.3489L4.52801 7.73293C4.88237 6.13914 5.75932 4.70954 7.01947 3.67138C8.27962 2.63323 9.85064 2.04611 11.4828 2.00335C13.1149 1.96059 14.7145 2.46465 16.0273 3.4354C17.3401 4.40615 18.2907 5.78788 18.728 7.36093L20.628 14.1969C20.7536 14.6423 20.7736 15.1108 20.6864 15.5653C20.5993 16.0197 20.4074 16.4476 20.126 16.8149Z" fill="#5F646E"/>
</svg>
