<svg width="14" height="8" viewBox="0 0 14 8" fill="none" xmlns="http://www.w3.org/2000/svg">
<path d="M0.87501 0.546081C1.107 0.546285 1.32941 0.638606 1.49334 0.802748L5.96868 5.27808C6.1041 5.41354 6.26488 5.521 6.44184 5.59431C6.6188 5.66762 6.80847 5.70535 7.00001 5.70535C7.19155 5.70535 7.38122 5.66762 7.55818 5.59431C7.73514 5.521 7.89592 5.41354 8.03134 5.27808L12.5038 0.808581C12.6688 0.649193 12.8898 0.560998 13.1192 0.562992C13.3487 0.564985 13.5681 0.657008 13.7304 0.81924C13.8926 0.981472 13.9846 1.20093 13.9866 1.43036C13.9886 1.65978 13.9004 1.8808 13.741 2.04583L9.27209 6.51533C8.66994 7.1163 7.85395 7.45382 7.00322 7.45382C6.15248 7.45382 5.3365 7.1163 4.73434 6.51533L0.259009 2.04C0.136733 1.9178 0.0533924 1.76212 0.0195035 1.59261C-0.0143853 1.42309 0.00269791 1.24734 0.0685959 1.08752C0.134494 0.927709 0.246255 0.790994 0.389774 0.694632C0.533295 0.598269 0.702142 0.546578 0.87501 0.546081Z" fill="#7C818D"/>
</svg>
