<?xml version="1.0" encoding="iso-8859-1"?>
<!-- Generator: Adobe Illustrator 18.0.0, SVG Export Plug-In . SVG Version: 6.00 Build 0)  -->
<!DOCTYPE svg PUBLIC "-//W3C//DTD SVG 1.1//EN" "http://www.w3.org/Graphics/SVG/1.1/DTD/svg11.dtd">
<svg version="1.1" id="Capa_1" xmlns="http://www.w3.org/2000/svg" xmlns:xlink="http://www.w3.org/1999/xlink" x="0px" y="0px"
	 viewBox="0 0 297 297" style="enable-background:new 0 0 297 297;" xml:space="preserve">
<g>
	<path d="M294.075,8.927c-2.079-2.098-4.974-3.182-7.914-2.966l-46.357,3.39c-5.564,0.407-9.745,5.247-9.338,10.812
		s5.249,9.727,10.812,9.338l19.262-1.409L192.68,96.04l-78.921-66.833c-4.011-3.398-9.956-3.151-13.672,0.565L2.959,126.901
		c-3.945,3.945-3.945,10.342,0,14.287c1.973,1.972,4.558,2.959,7.143,2.959s5.17-0.987,7.143-2.959l90.552-90.553l78.925,66.837
		c4.012,3.4,9.961,3.15,13.676-0.57l74.159-74.255l-1.532,18.499c-0.461,5.56,3.674,10.44,9.234,10.901
		c0.284,0.024,0.565,0.036,0.844,0.036c5.202-0.001,9.62-3.993,10.057-9.269l3.804-45.944
		C297.209,13.927,296.154,11.025,294.075,8.927z"/>
	<path d="M90.107,124.711c-3.774-1.562-8.12-0.698-11.01,2.19L37.12,168.877c-1.894,1.895-2.959,4.464-2.959,7.143v104.944
		c0,5.579,4.523,10.102,10.102,10.102H86.24c5.579,0,10.102-4.523,10.102-10.102v-146.92
		C96.342,129.958,93.881,126.274,90.107,124.711z M76.138,270.862H54.366v-90.657l21.773-21.773V270.862z"/>
	<path d="M135.363,126.901c-2.889-2.889-7.233-3.752-11.01-2.19c-3.774,1.564-6.236,5.247-6.236,9.334v146.92
		c0,5.579,4.523,10.102,10.102,10.102h41.977c5.579,0,10.102-4.523,10.102-10.102V176.022c0-2.679-1.064-5.248-2.959-7.143
		L135.363,126.901z M160.094,270.862h-21.773v-112.43l21.773,21.774V270.862z"/>
	<path d="M258.016,124.711c-3.776-1.562-8.121-0.698-11.01,2.19l-41.977,41.978c-1.894,1.895-2.959,4.464-2.959,7.143v104.943
		c0,5.579,4.523,10.102,10.102,10.102h41.977c5.579,0,10.102-4.523,10.102-10.102v-146.92
		C264.252,129.958,261.791,126.274,258.016,124.711z M244.048,270.862h-21.773v-90.656l21.773-21.774V270.862z"/>
</g>
<g>
</g>
<g>
</g>
<g>
</g>
<g>
</g>
<g>
</g>
<g>
</g>
<g>
</g>
<g>
</g>
<g>
</g>
<g>
</g>
<g>
</g>
<g>
</g>
<g>
</g>
<g>
</g>
<g>
</g>
</svg>
