<svg width="24px" height="24px" viewBox="0 0 24 24" id="magicoon-Regular" xmlns="http://www.w3.org/2000/svg"><defs><style></style></defs><title>chart-pie</title><g id="chart-pie-Regular"><path id="chart-pie-Regular-2" data-name="chart-pie-Regular" class="cls-1" d="M21.705,9.979A9.8,9.8,0,0,0,14.02,2.294a2.259,2.259,0,0,0-2.7,2.212V9.931a2.754,2.754,0,0,0,2.75,2.75h5.424a2.259,2.259,0,0,0,2.212-2.7Zm-1.628.924a.75.75,0,0,1-.584.278H14.069a1.252,1.252,0,0,1-1.25-1.25V4.506a.759.759,0,0,1,.756-.756.746.746,0,0,1,.149.015,8.3,8.3,0,0,1,6.51,6.51A.751.751,0,0,1,20.077,10.9Zm.261,4.316A9.248,9.248,0,0,1,2.25,12.5,9.179,9.179,0,0,1,8.781,3.663.75.75,0,1,1,9.219,5.1,7.748,7.748,0,1,0,18.9,14.781a.751.751,0,0,1,1.436.438Z"/></g></svg>