<svg width="20" height="20" viewBox="0 0 20 20" fill="none" xmlns="http://www.w3.org/2000/svg">
<g clip-path="url(#clip0_0_1381)">
<path d="M17.5 3.33333H14.9167C14.7233 2.39284 14.2115 1.54779 13.4677 0.940598C12.7239 0.333408 11.7935 0.0012121 10.8334 0L9.16669 0C8.20652 0.0012121 7.27612 0.333408 6.53231 0.940598C5.7885 1.54779 5.27677 2.39284 5.08335 3.33333H2.50002C2.27901 3.33333 2.06704 3.42113 1.91076 3.57741C1.75448 3.73369 1.66669 3.94565 1.66669 4.16667C1.66669 4.38768 1.75448 4.59964 1.91076 4.75592C2.06704 4.9122 2.27901 5 2.50002 5H3.33335V15.8333C3.33468 16.938 3.77409 17.997 4.5552 18.7782C5.33632 19.5593 6.39536 19.9987 7.50002 20H12.5C13.6047 19.9987 14.6637 19.5593 15.4448 18.7782C16.226 17.997 16.6654 16.938 16.6667 15.8333V5H17.5C17.721 5 17.933 4.9122 18.0893 4.75592C18.2456 4.59964 18.3334 4.38768 18.3334 4.16667C18.3334 3.94565 18.2456 3.73369 18.0893 3.57741C17.933 3.42113 17.721 3.33333 17.5 3.33333ZM9.16669 1.66667H10.8334C11.3502 1.6673 11.8543 1.82781 12.2764 2.1262C12.6984 2.42459 13.0179 2.84624 13.1909 3.33333H6.80919C6.98217 2.84624 7.3016 2.42459 7.72368 2.1262C8.14575 1.82781 8.64979 1.6673 9.16669 1.66667ZM15 15.8333C15 16.4964 14.7366 17.1323 14.2678 17.6011C13.7989 18.0699 13.1631 18.3333 12.5 18.3333H7.50002C6.83698 18.3333 6.20109 18.0699 5.73225 17.6011C5.26341 17.1323 5.00002 16.4964 5.00002 15.8333V5H15V15.8333Z" fill="#5F646E"/>
<path d="M8.33333 14.9999C8.55435 14.9999 8.76631 14.9121 8.92259 14.7558C9.07887 14.5996 9.16667 14.3876 9.16667 14.1666V9.16659C9.16667 8.94557 9.07887 8.73361 8.92259 8.57733C8.76631 8.42105 8.55435 8.33325 8.33333 8.33325C8.11232 8.33325 7.90036 8.42105 7.74408 8.57733C7.5878 8.73361 7.5 8.94557 7.5 9.16659V14.1666C7.5 14.3876 7.5878 14.5996 7.74408 14.7558C7.90036 14.9121 8.11232 14.9999 8.33333 14.9999Z" fill="#5F646E"/>
<path d="M11.6666 14.9999C11.8877 14.9999 12.0996 14.9121 12.2559 14.7558C12.4122 14.5996 12.5 14.3876 12.5 14.1666V9.16659C12.5 8.94557 12.4122 8.73361 12.2559 8.57733C12.0996 8.42105 11.8877 8.33325 11.6666 8.33325C11.4456 8.33325 11.2337 8.42105 11.0774 8.57733C10.9211 8.73361 10.8333 8.94557 10.8333 9.16659V14.1666C10.8333 14.3876 10.9211 14.5996 11.0774 14.7558C11.2337 14.9121 11.4456 14.9999 11.6666 14.9999Z" fill="#5F646E"/>
</g>
<defs>
<clipPath id="clip0_0_1381">
<rect width="20" height="20" fill="white"/>
</clipPath>
</defs>
</svg>
