<svg width="20" height="20" viewBox="0 0 20 20" fill="none" xmlns="http://www.w3.org/2000/svg">
<path d="M11.6667 20C11.4864 20 11.3109 19.9415 11.1667 19.8333L7.83334 17.3333C7.72984 17.2557 7.64584 17.1551 7.58798 17.0393C7.53013 16.9236 7.5 16.796 7.5 16.6667V11.9833L1.65334 5.40583C1.2381 4.9374 0.966987 4.35901 0.872571 3.7402C0.778155 3.12138 0.864458 2.48846 1.12111 1.91751C1.37776 1.34656 1.79383 0.861882 2.31932 0.521721C2.84481 0.181561 3.45736 0.000395349 4.08334 0L15.9167 0C16.5426 0.000734209 17.155 0.182199 17.6803 0.522589C18.2055 0.862978 18.6214 1.34781 18.8777 1.91882C19.1341 2.48983 19.2201 3.12273 19.1255 3.74146C19.0308 4.36018 18.7595 4.93841 18.3442 5.40667L12.5 11.9833V19.1667C12.5 19.3877 12.4122 19.5996 12.2559 19.7559C12.0996 19.9122 11.8877 20 11.6667 20ZM9.16667 16.25L10.8333 17.5V11.6667C10.8335 11.4626 10.9085 11.2657 11.0442 11.1133L17.1008 4.29917C17.3028 4.0709 17.4346 3.7892 17.4804 3.48788C17.5262 3.18655 17.484 2.87842 17.359 2.60046C17.2339 2.32251 17.0313 2.08655 16.7755 1.92091C16.5197 1.75527 16.2215 1.66699 15.9167 1.66667H4.08334C3.77871 1.66713 3.48069 1.75546 3.22501 1.92105C2.96933 2.08665 2.76684 2.3225 2.64184 2.60029C2.51684 2.87809 2.47463 3.18605 2.52028 3.48723C2.56592 3.78842 2.69748 4.07004 2.89917 4.29833L8.95667 11.1133C9.09202 11.2659 9.16673 11.4627 9.16667 11.6667V16.25Z" fill="#5F646E"/>
</svg>
