<svg width="24" height="24" viewBox="0 0 24 24" fill="none" xmlns="http://www.w3.org/2000/svg">
<g clip-path="url(#clip0_0_811)">
<path d="M16.2572 3.51343L20.486 3.51343L20.486 10.3786L13.6197 10.3786L13.6197 8.83195L17.4083 5.03993L17.5981 4.85416L16.2572 3.51343Z" fill="#099A71"/>
<path d="M12 0L16.8549 4.85411L12 9.70823L10.9054 8.61383L10.9054 2.98839L9.01112 2.98839L12 0Z" fill="#21244B"/>
<path d="M3.51397 3.51343L3.51397 7.74159L4.66914 6.58662L4.85493 6.40086L8.83339 10.3786L10.3803 10.3786L10.3803 3.51343L3.51397 3.51343Z" fill="#099A71"/>
<path d="M0 11.9979L4.85493 7.1438L9.70986 11.9979L8.61528 13.0923L2.99293 13.0923L2.99293 14.9863L0 11.9979Z" fill="#21244B"/>
<path d="M3.51397 20.4827L3.51801 13.6174L10.3803 13.6174L10.3803 15.1682L6.58768 18.9562L6.40593 19.1419L6.58768 19.3277L7.74285 20.4827L3.51397 20.4827Z" fill="#099A71"/>
<path d="M12 24.0001L7.14507 19.142L12 14.2878L13.0946 15.3822L13.0946 21.0077L14.9929 21.0077L12 24.0001Z" fill="#21244B"/>
<path d="M20.486 20.4827L13.6156 20.4827L13.6197 13.6174L15.1666 13.6174L18.9593 17.4095L19.1451 17.5952L19.3309 17.4095L20.486 16.2545L20.486 20.4827Z" fill="#099A71"/>
<path d="M19.1451 16.852L14.2901 11.9979L15.3847 10.9035L21.0111 10.9035L21.0111 9.00952L24 11.9979L19.1451 16.852Z" fill="#21244B"/>
</g>
<defs>
<clipPath id="clip0_0_811">
<rect width="24" height="24" fill="white"/>
</clipPath>
</defs>
</svg>
