<svg width="40" height="40" viewBox="0 0 40 40" fill="none" xmlns="http://www.w3.org/2000/svg">
<g clip-path="url(#clip0_262_245)">
<path d="M27.0953 5.8556L34.1434 5.8556L34.1434 17.2976L22.6995 17.2976L22.6995 14.7198L29.0138 8.39977L29.3302 8.09016L27.0953 5.8556Z" fill="white"/>
<path d="M20 0L28.0916 8.09019L20 16.1804L18.1757 14.3564L18.1757 4.98065L15.0186 4.98065L20 0Z" fill="white"/>
<path d="M5.85657 5.8556L5.85657 12.9025L7.78185 10.9776L8.09151 10.668L14.7223 17.2976L17.3005 17.2976L17.3005 5.8556L5.85657 5.8556Z" fill="white"/>
<path d="M0 19.9966L8.09155 11.9064L16.1831 19.9966L14.3588 21.8206L4.98822 21.8206L4.98822 24.9773L0 19.9966Z" fill="white"/>
<path d="M5.85657 34.1376L5.8633 22.6956L17.3005 22.6956L17.3005 25.2801L10.9794 31.5934L10.6765 31.9031L10.9794 32.2127L12.9047 34.1376L5.85657 34.1376Z" fill="white"/>
<path d="M20 40L11.9084 31.9031L20 23.8129L21.8243 25.6369L21.8243 35.0126L24.9882 35.0126L20 40Z" fill="white"/>
<path d="M34.1434 34.1376L22.6927 34.1376L22.6995 22.6956L25.2777 22.6956L31.5988 29.0156L31.9085 29.3252L32.2182 29.0156L34.1434 27.0907L34.1434 34.1376Z" fill="white"/>
<path d="M31.9084 28.0869L23.8169 19.9967L25.6412 18.1727L35.0185 18.1727L35.0185 15.016L40 19.9967L31.9084 28.0869Z" fill="white"/>
</g>
<defs>
<clipPath id="clip0_262_245">
<rect width="40" height="40" fill="white"/>
</clipPath>
</defs>
</svg>
