<svg width="20" height="20" viewBox="0 0 20 20" fill="none" xmlns="http://www.w3.org/2000/svg">
<path d="M15.8333 5V3.33333C15.8333 2.44928 15.4821 1.60143 14.857 0.976311C14.2319 0.35119 13.3841 0 12.5 0L7.5 0C6.61594 0 5.7681 0.35119 5.14298 0.976311C4.51786 1.60143 4.16667 2.44928 4.16667 3.33333V5C3.062 5.00132 2.00296 5.44073 1.22185 6.22185C0.440735 7.00296 0.00132321 8.062 0 9.16667L0 13.3333C0.00132321 14.438 0.440735 15.497 1.22185 16.2782C2.00296 17.0593 3.062 17.4987 4.16667 17.5C4.16667 18.163 4.43006 18.7989 4.8989 19.2678C5.36774 19.7366 6.00363 20 6.66667 20H13.3333C13.9964 20 14.6323 19.7366 15.1011 19.2678C15.5699 18.7989 15.8333 18.163 15.8333 17.5C16.938 17.4987 17.997 17.0593 18.7782 16.2782C19.5593 15.497 19.9987 14.438 20 13.3333V9.16667C19.9987 8.062 19.5593 7.00296 18.7782 6.22185C17.997 5.44073 16.938 5.00132 15.8333 5ZM5.83333 3.33333C5.83333 2.89131 6.00893 2.46738 6.32149 2.15482C6.63405 1.84226 7.05797 1.66667 7.5 1.66667H12.5C12.942 1.66667 13.3659 1.84226 13.6785 2.15482C13.9911 2.46738 14.1667 2.89131 14.1667 3.33333V5H5.83333V3.33333ZM14.1667 17.5C14.1667 17.721 14.0789 17.933 13.9226 18.0893C13.7663 18.2455 13.5543 18.3333 13.3333 18.3333H6.66667C6.44565 18.3333 6.23369 18.2455 6.07741 18.0893C5.92113 17.933 5.83333 17.721 5.83333 17.5V14.1667C5.83333 13.9457 5.92113 13.7337 6.07741 13.5774C6.23369 13.4211 6.44565 13.3333 6.66667 13.3333H13.3333C13.5543 13.3333 13.7663 13.4211 13.9226 13.5774C14.0789 13.7337 14.1667 13.9457 14.1667 14.1667V17.5ZM18.3333 13.3333C18.3333 13.9964 18.0699 14.6323 17.6011 15.1011C17.1323 15.5699 16.4964 15.8333 15.8333 15.8333V14.1667C15.8333 13.5036 15.5699 12.8677 15.1011 12.3989C14.6323 11.9301 13.9964 11.6667 13.3333 11.6667H6.66667C6.00363 11.6667 5.36774 11.9301 4.8989 12.3989C4.43006 12.8677 4.16667 13.5036 4.16667 14.1667V15.8333C3.50363 15.8333 2.86774 15.5699 2.3989 15.1011C1.93006 14.6323 1.66667 13.9964 1.66667 13.3333V9.16667C1.66667 8.50362 1.93006 7.86774 2.3989 7.3989C2.86774 6.93006 3.50363 6.66667 4.16667 6.66667H15.8333C16.4964 6.66667 17.1323 6.93006 17.6011 7.3989C18.0699 7.86774 18.3333 8.50362 18.3333 9.16667V13.3333Z" fill="#5F646E"/>
</svg>
