<svg width="303" height="228" viewBox="0 0 303 228" fill="none" xmlns="http://www.w3.org/2000/svg">
<g clip-path="url(#clip0_0_1430)">
<path d="M239.356 146.3C203.668 146.3 175.712 139.832 175.712 131.575C175.712 126.625 185.618 122.208 202.889 119.458C202.951 119.447 203.014 119.45 203.075 119.464C203.136 119.478 203.193 119.504 203.244 119.541C203.295 119.578 203.338 119.624 203.371 119.677C203.404 119.731 203.426 119.79 203.435 119.852C203.445 119.913 203.443 119.977 203.428 120.037C203.413 120.098 203.387 120.156 203.35 120.206C203.313 120.257 203.267 120.299 203.213 120.332C203.16 120.365 203.1 120.386 203.039 120.396C186.769 122.987 176.662 127.271 176.662 131.575C176.662 139.042 205.373 145.35 239.356 145.35C273.34 145.35 302.05 139.042 302.05 131.575C302.05 127.253 291.879 122.958 275.505 120.369C275.381 120.349 275.27 120.28 275.196 120.179C275.122 120.077 275.092 119.95 275.111 119.826C275.131 119.701 275.199 119.59 275.301 119.516C275.402 119.442 275.529 119.411 275.654 119.43C293.033 122.179 303 126.606 303 131.575C303 139.832 275.044 146.3 239.356 146.3Z" fill="#CCCCCC"/>
<path d="M207.782 149.073C211.011 154.603 215.635 159.188 221.193 162.369C226.75 165.55 233.045 167.216 239.448 167.2C245.851 167.184 252.138 165.486 257.679 162.277C263.22 159.068 267.821 154.46 271.022 148.914C249.961 150.126 228.849 150.179 207.782 149.073Z" fill="#E6E6E6"/>
<path d="M274.523 138.759C276.079 133.3 276.344 127.555 275.296 121.976C274.248 116.398 271.916 111.14 268.485 106.618C265.054 102.097 260.618 98.4363 255.528 95.9261C250.437 93.416 244.833 92.1251 239.157 92.1558C233.482 92.1865 227.891 93.5378 222.828 96.1029C217.766 98.6679 213.369 102.376 209.987 106.935C206.605 111.493 204.33 116.776 203.343 122.365C202.355 127.955 202.682 133.697 204.297 139.138C227.624 142.05 251.229 141.922 274.523 138.759Z" fill="#E6E6E6"/>
<path d="M56.7364 4.27512C56.7362 3.50223 56.5265 2.74386 56.1296 2.08069C55.7327 1.41752 55.1635 0.87436 54.4825 0.50901C53.8015 0.14366 53.0342 -0.0302131 52.2622 0.00588763C51.4902 0.0419884 50.7425 0.286713 50.0985 0.714024C49.4546 1.14134 48.9385 1.73525 48.6052 2.43257C48.2719 3.12988 48.1339 3.90452 48.2058 4.67405C48.2777 5.44358 48.5569 6.17922 49.0136 6.80269C49.4703 7.42617 50.0875 7.91415 50.7995 8.21471V30.4001H54.1242V8.21471C54.8987 7.88762 55.5595 7.33944 56.0241 6.63874C56.4887 5.93803 56.7365 5.11589 56.7364 4.27512Z" fill="#CCCCCC"/>
<path d="M80.723 110.675H80.7216C79.4437 110.674 78.1792 110.415 77.0036 109.914C75.8281 109.413 74.7656 108.68 73.8795 107.759C72.9935 106.838 72.3022 105.748 71.8468 104.554C71.3915 103.36 71.1815 102.086 71.2293 100.809C71.4197 95.7727 75.7799 91.6753 80.949 91.6753H107.045L128.519 82.1681C129.095 81.914 129.748 81.8987 130.335 82.1255C130.923 82.3523 131.396 82.8028 131.652 83.3781L137.42 96.4086C137.674 96.9846 137.689 97.638 137.462 98.2253C137.235 98.8126 136.785 99.286 136.21 99.5416L115.059 108.906C112.964 109.836 110.701 110.329 108.409 110.353L80.723 110.675Z" fill="#CCCCCC"/>
<path d="M17.4659 160.713C17.3422 160.713 17.2186 160.702 17.0966 160.681L3.0522 158.284H3.05231C2.77128 158.236 2.50267 158.132 2.26231 157.979C2.02195 157.826 1.8147 157.626 1.65276 157.391C1.49082 157.157 1.37746 156.892 1.31937 156.613C1.26128 156.334 1.25962 156.046 1.3145 155.766L12.3075 99.6918C12.7215 97.2704 14.0803 95.1126 16.085 93.6931C18.0897 92.2736 20.5762 91.7088 22.9974 92.1227C25.4186 92.5367 27.5761 93.8957 28.9955 95.9006C30.4148 97.9055 30.9796 100.392 30.5657 102.814L19.5536 158.985C19.4614 159.471 19.2023 159.91 18.8211 160.225C18.4399 160.541 17.9606 160.713 17.4659 160.713Z" fill="#CCCCCC"/>
<path d="M9.95347 172.9C14.675 172.9 18.5026 169.072 18.5026 164.35C18.5026 159.628 14.675 155.8 9.95347 155.8C5.23189 155.8 1.4043 159.628 1.4043 164.35C1.4043 169.072 5.23189 172.9 9.95347 172.9Z" fill="#E6E6E6"/>
<path d="M51.4278 91.0467C69.0026 91.0467 83.2497 76.7982 83.2497 59.2217C83.2497 41.6453 69.0026 27.3967 51.4278 27.3967C33.8531 27.3967 19.6059 41.6453 19.6059 59.2217C19.6059 76.7982 33.8531 91.0467 51.4278 91.0467Z" fill="#E6E6E6"/>
<path d="M51.4278 91.0467C69.0026 91.0467 83.2497 76.7982 83.2497 59.2217C83.2497 41.6453 69.0026 27.3967 51.4278 27.3967C33.8531 27.3967 19.6059 41.6453 19.6059 59.2217C19.6059 76.7982 33.8531 91.0467 51.4278 91.0467Z" fill="#E6E6E6"/>
<path d="M51.4277 83.4471C64.8055 83.4471 75.6504 72.6012 75.6504 59.2221C75.6504 45.843 64.8055 34.9971 51.4277 34.9971C38.0499 34.9971 27.2051 45.843 27.2051 59.2221C27.2051 72.6012 38.0499 83.4471 51.4277 83.4471Z" fill="#6C63FF"/>
<path d="M54.2597 69.3908C52.6895 69.3472 50.7354 69.2927 49.2299 68.1928C48.7816 67.8519 48.4133 67.4171 48.1508 66.9188C47.8882 66.4205 47.7378 65.8708 47.71 65.3083C47.6828 64.9085 47.7484 64.5078 47.9017 64.1376C48.055 63.7673 48.2918 63.4376 48.5936 63.174C49.3799 62.5095 50.5281 62.3537 51.7655 62.7174L50.4835 53.3477L51.4246 53.2188L52.9317 64.234L52.1458 63.8733C51.2347 63.4554 49.984 63.2427 49.2068 63.8996C49.016 64.0713 48.8673 64.2847 48.7723 64.5232C48.6774 64.7618 48.6387 65.019 48.6593 65.2749C48.6824 65.6936 48.7953 66.1024 48.9905 66.4735C49.1856 66.8447 49.4584 67.1694 49.7903 67.4256C50.9619 68.2815 52.5195 68.3919 54.2861 68.4413L54.2597 69.3908Z" fill="#2F2E41"/>
<path d="M45.8293 54.1562H40.7133V55.1062H45.8293V54.1562Z" fill="#2F2E41"/>
<path d="M61.9777 54.1562H56.8617V55.1062H61.9777V54.1562Z" fill="#2F2E41"/>
<path opacity="0.2" d="M35.1261 59.3753C35.1265 53.5866 37.199 47.9894 40.9685 43.5967C44.738 39.204 49.9554 36.306 55.6764 35.4273C52.2197 34.8433 48.6774 35.0167 45.2943 35.9356C41.9111 36.8545 38.7677 38.4969 36.0813 40.7495C33.3949 43.002 31.2294 45.811 29.7345 48.9823C28.2397 52.1536 27.451 55.6116 27.423 59.1176C27.395 62.6235 28.1284 66.0937 29.5725 69.2885C31.0166 72.4833 33.1369 75.3264 35.787 77.6216C38.4372 79.9167 41.5539 81.6091 44.922 82.5819C48.29 83.5547 51.8291 83.7847 55.2947 83.2559C49.6547 82.2979 44.5356 79.3747 40.8442 75.0038C37.1527 70.633 35.1271 65.0966 35.1261 59.3753Z" fill="black"/>
<path d="M75.6504 160.788H27.2051C25.1274 160.785 23.1354 159.959 21.6663 158.489C20.1971 157.02 19.3707 155.028 19.3683 152.95V98.325C19.3707 96.2471 20.1971 94.255 21.6663 92.7857C23.1354 91.3164 25.1274 90.4899 27.2051 90.4875H34.5669V92.625C34.5685 94.0733 35.1445 95.4618 36.1684 96.4858C37.1924 97.5099 38.5807 98.0859 40.0288 98.0875H62.8266C64.2747 98.0859 65.6631 97.5099 66.687 96.4858C67.711 95.4618 68.287 94.0733 68.2886 92.625V90.4875H75.6504C77.7281 90.4899 79.72 91.3164 81.1892 92.7857C82.6584 94.255 83.4848 96.2471 83.4871 98.325V152.95C83.4848 155.028 82.6584 157.02 81.1892 158.489C79.72 159.959 77.7281 160.785 75.6504 160.788Z" fill="#E6E6E6"/>
<path d="M82.1507 213.275H63.1484V191.335L38.3315 153.28L54.2446 142.9L78.9529 180.79C80.7221 183.501 81.69 186.656 81.7451 189.893L82.1507 213.275Z" fill="#E6E6E6"/>
<path d="M48.6622 227.763H30.139V172.188H48.6622V227.763Z" fill="#E6E6E6"/>
<path d="M71.8507 177.412H31.0047C29.9344 177.411 28.9082 176.985 28.1514 176.229C27.3945 175.472 26.9688 174.445 26.9676 173.375V158.175C26.9688 157.105 27.3945 156.078 28.1514 155.321C28.9082 154.564 29.9344 154.139 31.0047 154.137H71.8507C72.9211 154.139 73.9472 154.564 74.7041 155.321C75.4609 156.078 75.8866 157.105 75.8878 158.175V173.375C75.8866 174.445 75.4609 175.472 74.7041 176.229C73.9472 176.985 72.9211 177.411 71.8507 177.412Z" fill="#E6E6E6"/>
<path d="M85.4711 222.063H63.3857V207.338H85.4711C87.4236 207.338 89.2961 208.114 90.6767 209.494C92.0573 210.875 92.8329 212.748 92.8329 214.7C92.8329 216.653 92.0573 218.526 90.6767 219.906C89.2961 221.287 87.4236 222.063 85.4711 222.063Z" fill="#CCCCCC"/>
<path d="M52.2244 227.762H30.139V213.037H52.2244C54.1769 213.037 56.0494 213.813 57.43 215.194C58.8106 216.574 59.5862 218.447 59.5862 220.4C59.5862 222.352 58.8106 224.225 57.43 225.606C56.0494 226.986 54.1769 227.762 52.2244 227.762Z" fill="#CCCCCC"/>
<path d="M74.5472 114.712H56.9739C56.533 114.712 56.1102 114.537 55.7985 114.226C55.4867 113.914 55.3116 113.491 55.3116 113.05C55.3116 112.609 55.4867 112.186 55.7985 111.874C56.1102 111.563 56.533 111.387 56.9739 111.387H74.5472C74.9881 111.387 75.4109 111.563 75.7227 111.874C76.0344 112.186 76.2096 112.609 76.2096 113.05C76.2096 113.491 76.0344 113.914 75.7227 114.226C75.4109 114.537 74.9881 114.712 74.5472 114.712Z" fill="white"/>
<path d="M74.5472 120.65H56.9739C56.533 120.65 56.1102 120.475 55.7985 120.163C55.4867 119.851 55.3116 119.428 55.3116 118.987C55.3116 118.547 55.4867 118.124 55.7985 117.812C56.1102 117.5 56.533 117.325 56.9739 117.325H74.5472C74.9881 117.325 75.4109 117.5 75.7227 117.812C76.0344 118.124 76.2096 118.547 76.2096 118.987C76.2096 119.428 76.0344 119.851 75.7227 120.163C75.4109 120.475 74.9881 120.65 74.5472 120.65Z" fill="white"/>
<path d="M104.49 228H0.474954C0.348988 228 0.228189 227.95 0.139118 227.861C0.0500465 227.772 0 227.651 0 227.525C0 227.399 0.0500465 227.278 0.139118 227.189C0.228189 227.1 0.348988 227.05 0.474954 227.05H104.49C104.616 227.05 104.737 227.1 104.826 227.189C104.915 227.278 104.965 227.399 104.965 227.525C104.965 227.651 104.915 227.772 104.826 227.861C104.737 227.95 104.616 228 104.49 228Z" fill="#3F3D56"/>
<path d="M138.666 95.9496C143.388 95.9496 147.215 92.1216 147.215 87.3996C147.215 82.6776 143.388 78.8496 138.666 78.8496C133.944 78.8496 130.117 82.6776 130.117 87.3996C130.117 92.1216 133.944 95.9496 138.666 95.9496Z" fill="#E6E6E6"/>
<path d="M141.278 121.837C140.523 121.836 139.798 121.536 139.264 121.001C138.73 120.467 138.429 119.743 138.428 118.987V16.3871C138.428 15.6312 138.729 14.9063 139.263 14.3719C139.798 13.8374 140.522 13.5371 141.278 13.5371C142.034 13.5371 142.759 13.8374 143.293 14.3719C143.828 14.9063 144.128 15.6312 144.128 16.3871V118.987C144.127 119.743 143.827 120.467 143.292 121.001C142.758 121.536 142.034 121.836 141.278 121.837Z" fill="#3F3D56"/>
<path d="M227.796 14.4115C225.293 12.2218 216.696 5.40554 205.606 4.16104C197.309 3.23479 187.615 5.42455 178.035 15.01C170.35 22.6956 163.102 26.3388 156.491 25.8448C149.742 25.3366 145.254 20.539 143.178 17.7223C143.032 17.5209 142.826 17.3716 142.589 17.2964C142.352 17.2211 142.098 17.2239 141.862 17.3043C141.622 17.3797 141.413 17.5302 141.265 17.7338C141.117 17.9374 141.038 18.1831 141.041 18.4348V53.8983C141.041 54.1231 141.105 54.3432 141.225 54.5331C141.346 54.723 141.517 54.8751 141.72 54.9718C144.308 56.1973 153.632 60.268 163.017 60.268C168.521 60.268 174.055 58.8668 178.253 54.663C178.296 54.6203 178.334 54.5823 178.377 54.5443C185.815 47.3053 202.21 48.792 214.174 51.1576C219.123 52.1361 223.312 53.2618 225.796 53.9838C226.114 54.0757 226.449 54.0923 226.775 54.0324C227.1 53.9725 227.407 53.8377 227.672 53.6386C227.936 53.4396 228.151 53.1818 228.298 52.8855C228.446 52.5893 228.523 52.2628 228.522 51.9318V16.0218C228.523 15.7172 228.458 15.416 228.333 15.1383C228.207 14.8607 228.024 14.6129 227.796 14.4115Z" fill="#6C63FF"/>
<path d="M246.955 115.425C249.316 115.425 251.23 113.511 251.23 111.15C251.23 108.789 249.316 106.875 246.955 106.875C244.595 106.875 242.681 108.789 242.681 111.15C242.681 113.511 244.595 115.425 246.955 115.425Z" fill="white"/>
<path d="M239.356 162.45C241.717 162.45 243.631 160.536 243.631 158.175C243.631 155.814 241.717 153.9 239.356 153.9C236.995 153.9 235.082 155.814 235.082 158.175C235.082 160.536 236.995 162.45 239.356 162.45Z" fill="white"/>
<path d="M225.583 133C229.517 133 232.707 129.81 232.707 125.875C232.707 121.94 229.517 118.75 225.583 118.75C221.648 118.75 218.458 121.94 218.458 125.875C218.458 129.81 221.648 133 225.583 133Z" fill="white"/>
</g>
<defs>
<clipPath id="clip0_0_1430">
<rect width="303" height="228" fill="white"/>
</clipPath>
</defs>
</svg>
